<svg height="512" viewBox="0 0 64 64" width="512" xmlns="http://www.w3.org/2000/svg"><g id="Light_Bulb" data-name="Light Bulb"><path d="m31 2h2v4h-2z"/><path d="m14.737 8.736h2v4h-2z" transform="matrix(.707 -.707 .707 .707 -2.983 14.272)"/><path d="m7 26h4v2h-4z"/><path d="m13.736 42.264h4v2h-4z" transform="matrix(.707 -.707 .707 .707 -25.983 23.799)"/><path d="m47.264 41.263h2v4h-2z" transform="matrix(.707 -.707 .707 .707 -16.456 46.799)"/><path d="m53 26h4v2h-4z"/><path d="m46.263 9.737h4v2h-4z" transform="matrix(.707 -.707 .707 .707 6.544 37.272)"/><path d="m40.628 14.729-1.151 1.634a13.029 13.029 0 0 1 5.523 10.637h2a15.027 15.027 0 0 0 -6.372-12.271z"/><path d="m35.716 14.539a12.966 12.966 0 0 1 1.873.72l.862-1.8a14.838 14.838 0 0 0 -2.164-.833z"/><path d="m32 8a19.021 19.021 0 0 0 -19 19 19.572 19.572 0 0 0 9.608 16.917 2.908 2.908 0 0 1 1.392 2.533v8.55a7.008 7.008 0 0 0 7 7h2a7.008 7.008 0 0 0 7-7v-8.55a2.908 2.908 0 0 1 1.392-2.533 19.572 19.572 0 0 0 9.608-16.917 19.021 19.021 0 0 0 -19-19zm1 52h-2a5.009 5.009 0 0 1 -4.9-4h11.8a5.009 5.009 0 0 1 -4.9 4zm7.387-17.812a4.876 4.876 0 0 0 -2.358 3.812h-3.029v2h3v2h-3v2h3v2h-12v-2.02h7v-2h-7v-1.98h7v-2h-7.029a4.876 4.876 0 0 0 -2.358-3.812 17.564 17.564 0 0 1 -8.613-15.188 17 17 0 0 1 34 0 17.564 17.564 0 0 1 -8.613 15.188z"/></g></svg>