<svg xmlns="http://www.w3.org/2000/svg" viewBox="0 0 545.76 500"><defs><style>.cls-1{fill:#ebe8ec;}.cls-2{fill:#ecd0a1;}.cls-3{fill:#1e2322;}.cls-4{fill:#ddbb8a;}.cls-5{fill:#fed976;}.cls-6{fill:#fff;}.cls-7{fill:#28243f;}.cls-8{fill:#333049;}.cls-9{fill:#3f2a3f;}.cls-10{fill:#f2b10f;}.cls-11{fill:#8cacdd;}.cls-12{fill:#a0bcea;}.cls-13{fill:#d2e1f7;}.cls-14{fill:#6387c1;}</style></defs><title>369729-PB8VLL-805</title><g id="DESIGNED_BY_FREEPIK" data-name="DESIGNED BY FREEPIK"><path class="cls-1" d="M368.79,458.33a346.26,346.26,0,0,0,51.47,4.24,316,316,0,0,0,48.55-4.24L466.87,454c-8.52-18.91-40.75-11.55-48.07-31.07h0c-6.1,19.52-39.56,12.16-48.07,31.07Z"/><rect class="cls-1" x="412.7" y="311.56" width="13.42" height="125.63" transform="translate(838.82 748.76) rotate(180)"/><polygon class="cls-2" points="416.52 426.9 410.66 414.09 397.83 418.82 401.4 431.99 416.52 426.9"/><path class="cls-3" d="M416.49,426.7l3.08,10.46L406,441.45s-30.62,12.85-36.32,6.89c-2.62-2.73,7.35-5.42,13.75-9.66s16.45-10.21,16.45-10.21A64.44,64.44,0,0,0,416.49,426.7Z"/><polygon class="cls-2" points="348.74 445.82 346.74 431.88 333.1 432.79 332.8 446.43 348.74 445.82"/><path class="cls-3" d="M348.77,445.62v10.91l-14.22.28s-33,3.69-36.79-3.64c-1.73-3.36,8.59-3.13,15.92-5.39s18.66-5.15,18.66-5.15A64.46,64.46,0,0,0,348.77,445.62Z"/><path class="cls-4" d="M225.41,205.6l18.85-6.26,16.68,4.23c9.4-2.45,12.52-2.31,31.76-7.26,16.24-4.17,34.89-12.5,34.89-12.5l13.82-23.18c8.94.82,27.73,10.58,27.73,10.58s-25.7,35-33,37.4-56.65,8.46-75.46,6.3c-5.93-.68-17.52-6.95-17.52-6.95l-14.87,2.47-11.6,7.83-2-1.68,4.61-5.05Z"/><path class="cls-5" d="M355.67,116.5s24,4,23.55,25.56c-.26,14-19.51,40.25-19.51,40.25s-10.57-14.63-23.58-18.7c0,0,8.45-24.79,11-32.54C350.41,121.33,355.67,116.5,355.67,116.5Z"/><rect class="cls-1" x="395.62" y="307.9" width="47.57" height="25.61" transform="translate(838.82 641.42) rotate(180)"/><path class="cls-1" d="M402,208.28q-3.51-46.49-5.05-93.07c29.41-13.1,95-7.25,101.13,12.17,6.51,20.61-18.29,79.29-18.29,101.24s8.53,37.81,9.75,47.57-4.87,17.08-4.87,17.08H409.48C407.56,264.9,404.14,236.58,402,208.28Z"/><path class="cls-6" d="M402,208.28q-3.66-48.43-5.17-97c32.31-7.56,83.66-1,89.05,16.1,6.51,20.61-18.29,79.29-18.29,101.24s8.54,37.81,9.76,47.57-4.88,17.08-4.88,17.08h-63C407.56,264.9,404.14,236.58,402,208.28Z"/><path class="cls-6" d="M356.37,293.27h128.3a0,0,0,0,1,0,0v23.18a0,0,0,0,1,0,0H343.17a0,0,0,0,1,0,0v-10A13.19,13.19,0,0,1,356.37,293.27Z" transform="translate(827.84 609.71) rotate(180)"/><path class="cls-7" d="M370,240s-67.69,40.22-71.71,56.82C293.49,316.64,326,434,326,434c7.65,5.15,21.84,3.41,27.07-1.27,0,0-26.12-100.4-23.27-107.11,7-16.42,66.27-36,85-53.87s20.33-35,20.33-35Z"/><path class="cls-8" d="M447.39,222s23.06,48.07,2.32,67.59c-9.49,8.93-66.28.81-69.54,9.76l34.29,113.9s-6,3.68-18.24,9.78c0,0-71.34-125.72-64-142s56.51-25.61,58.95-34.56,4.07-23.58,4.07-23.58Z"/><path class="cls-2" d="M349.59,91.63c1.47,5.58,4.09,11.73,9.56,13.54,5,1.67,10.39-1,15-3.74,5.36-3.19,10.8-6.69,14.23-11.91,5.21-7.91,9.42-17.58,8.83-27-.2-3.35-5.09-7.44-7.12-10.11a15,15,0,0,0-5.71-4.09,59.33,59.33,0,0,0-16-5c-9.25-1.51-19.54.56-21.39,10.72C344.72,66.09,346.48,79.87,349.59,91.63Z"/><path class="cls-9" d="M363.11,70.08a2.53,2.53,0,1,0,2.53-2.53A2.53,2.53,0,0,0,363.11,70.08Z"/><path class="cls-9" d="M348.75,70.08a2.53,2.53,0,1,0,2.53-2.53A2.53,2.53,0,0,0,348.75,70.08Z"/><path class="cls-9" d="M367.9,79.28a8.81,8.81,0,1,1,8.82-8.81A8.83,8.83,0,0,1,367.9,79.28Zm0-16a7.18,7.18,0,1,0,7.19,7.18A7.2,7.2,0,0,0,367.9,63.29Z"/><path class="cls-9" d="M354.61,65.78l-1.3-1a6,6,0,0,1,4.52-2.38,6.88,6.88,0,0,1,5.34,2.13L362,65.68A5.31,5.31,0,0,0,357.92,64,4.42,4.42,0,0,0,354.61,65.78Z"/><path class="cls-9" d="M348.44,79.28a8.81,8.81,0,1,1,8.82-8.81A8.82,8.82,0,0,1,348.44,79.28Zm0-16a7.18,7.18,0,1,0,7.19,7.18A7.2,7.2,0,0,0,348.44,63.29Z"/><path class="cls-2" d="M414.84,106.85s-.11-1.83-6.61-3.46c-1.87-.46-4.2-.47-5.69-1.77-5.26-4.6-10.1-13.17-11.89-19.48a5.45,5.45,0,0,1-.28-2.87q-6.6,5.6-12.74,11.69c-1.4,1.39-9.86.61-8.84,2.49.29.53,2.44,5.46,4.56,10.24-4.1,2.69-8.63,6.21-8.63,6.21L359,141.61,375.7,151s18.7-4.06,30.9-10.57S414.84,106.85,414.84,106.85Z"/><path class="cls-10" d="M408.23,103.39s-4.88,9-17.08,14.23S368,107.05,368,107.05l-12.31,9.45s-1.11,43.23,4.17,66.81S370,240,370,240s5.45,8,12.42,8.47c8.52.58,20.26-6.1,38.81-2.77,20.58,3.69,35.9.45,35.9.45s-15.83-77.36-19.49-92.81-13.16-47.1-13.16-47.1A131.68,131.68,0,0,0,408.23,103.39Z"/><path class="cls-1" d="M187.84,212.42H259a5,5,0,0,1,5,5v1.15a0,0,0,0,1,0,0H187.84a0,0,0,0,1,0,0v-6.14A0,0,0,0,1,187.84,212.42Z" transform="translate(451.83 430.98) rotate(180)"/><path class="cls-6" d="M215.34,142.45a5,5,0,0,1,4.73,3.32l24.18,66.74-1.49.62.39,1.16-55.31-1.87-23.54-63.2a5,5,0,0,1,4.71-6.79Z"/><path class="cls-1" d="M196.42,182c1.64,6.3,4.86,11.32,7.19,11.22s2.88-5.29,1.24-11.59-4.86-11.32-7.18-11.22S194.78,175.66,196.42,182Z"/><path class="cls-9" d="M357.88,64.62c.09,4.87-1.87,8.53-3.91,12.8-.89,1.87-1.65,4.43-.92,6.49a.76.76,0,0,0,.71.53c1.89-.06,4.05-1.36,5.77-2.13.71-.31.21-1.53-.53-1.26s-1.63.72-2.46,1c-1.75.48-2.05.76-2.12-1.1-.09-2.3,2-4.8,2.82-6.88a19.66,19.66,0,0,0,1.45-9.4c0-.52-.82-.53-.81,0Z"/><path class="cls-9" d="M364.42,60.13a13.92,13.92,0,0,0,3.1.39c1.09.1,2.17.25,3.26.38,1.41.16,1.75-2.27.34-2.49-2.06-.33-4.65-.84-6.7-.33a1.07,1.07,0,0,0,0,2.05Z"/><path class="cls-9" d="M348.2,60.16c1.73.28,3.48,0,5.24.11s1.58-2.36,0-2.53c-1.82-.19-3.93-.15-5.43,1-.46.35-.56,1.3.19,1.42Z"/><path class="cls-9" d="M375.93,68.85a27.36,27.36,0,0,0,5-1.38,22.13,22.13,0,0,0,4.91-1.77.59.59,0,0,0-.29-1.09,17.89,17.89,0,0,0-5.06,1.26,20.88,20.88,0,0,0-4.84,2c-.4.27-.29,1.07.27,1Z"/><path class="cls-8" d="M363.26,56.11c-7.91-.52-16.23-.57-23.15-4.17-3.36-1.75-6.38-4.54-7-8.07S335,36.26,338.87,36a5,5,0,0,0,2.32-.37,3.23,3.23,0,0,0,1.11-2.53c.86-6.27,6.14-12.6,13-12.45,5.56.13,10.73,4.41,16.11,3.11a23.24,23.24,0,0,0,4.63-2,25,25,0,0,1,15-2c5.34.95,11,5.16,9.69,10-.44,1.64-1.61,3.06-1.92,4.71-1.11,5.92,8.31,8.87,10.17,14.62,1.7,5.23-3.48,10.44-3.08,15.89.22,3,2,6.59-.32,8.75-1.23,1.15-3.33,1.44-4.15,2.86-1.13,2,1,4.16,1.15,6.36.23,2.73-2.89,5-5.83,4.78a8.23,8.23,0,0,1-6.54-4.92A17.55,17.55,0,0,1,389,74.72c5-1.4,8-9.6,3.35-11.7-2.49-1.12-5.15,1.59-6.1,3.9C381.33,59.07,373.43,56.11,363.26,56.11Z"/><path class="cls-8" d="M383.47,68.74q-2.48,5.67-4.93,11.35a10.92,10.92,0,0,1-2.62,4.16c-1.92,1.64-4.73,1.75-7.21,1.25s-7.21-1.87-9.72-1.65c-5.75.49-10,3.25-10.35,3.94-.74,1.41.3,3.59.32,5.18a9.08,9.08,0,0,1-1.1,4.81,15.86,15.86,0,0,1-2.15,2.56c-2,2.17-3.88,4.88-3.71,7.86.22,4.07,4,6.91,7.37,9.17,2.18,1.44,4.43,2.92,7,3.39a19.56,19.56,0,0,0,5.24,0,52.12,52.12,0,0,0,10.78-1.72,17.64,17.64,0,0,0,9-5.87c1.87-2.49,2.78-5.55,3.65-8.54,1.41-4.84,2.8-9.74,3-14.78.16-4.71-.75-9.39-1.23-14.09a78.34,78.34,0,0,1-.26-12.35c0-.5.09-1.71-.66-1.81s-.53,1.12-.64,1.63A29.67,29.67,0,0,1,383.47,68.74Z"/><path class="cls-2" d="M353.14,90.33a4.65,4.65,0,0,0,1,5.15,2.88,2.88,0,0,0,2.26.91,1.7,1.7,0,0,0,1.54-1.67c0-.31-.15-.65,0-.91s.5-.3.8-.31c1.13-.07,2.5,0,3,1,.16.3.22.65.4.94a2.28,2.28,0,0,0,2.2.71,12.85,12.85,0,0,0,3.42-.76,4,4,0,0,0,1.53-.9,1.68,1.68,0,0,0,.43-1.64,2.54,2.54,0,0,0-1-1.07C365.21,89.28,356,84.21,353.14,90.33Z"/><path class="cls-9" d="M354.88,90.29c1.85,1.17,5.73,1.23,7.5-.12a.58.58,0,0,0-.29-1.07c-1.16,0-2.29.46-3.47.52s-2.35-.18-3.52-.12a.43.43,0,0,0-.22.79Z"/><path class="cls-6" d="M404.54,300.21s-2.35-65.63,12.3-70,46.88-3.1,46.88-3.1l2.93,11.76s-42.19-3.09-48,5,0,56.95,0,56.95Z"/><path class="cls-2" d="M286.49,203.55l18.85-6.25L322,201.52c9.4-2.44,12.52-2.3,31.76-7.25,16.24-4.17,34.89-12.5,34.89-12.5l21.16-31.62c8.94.81,20.39,19,20.39,19s-25.7,35-33,37.41-63.15,8.91-82,6.76c-5.92-.68-16.4-7.17-16.4-7.17l-9.5,2.23-11.6,7.82-2-1.67,4.61-5.06Z"/><path class="cls-5" d="M424.49,106.24s25.21,4.07,24.8,25.61c-.26,14-19.51,40.26-19.51,40.26s-10.57-14.64-23.59-18.71c0,0,10.17-19.92,11-28.05S424.49,106.24,424.49,106.24Z"/><path class="cls-6" d="M244.25,212.42h71.16a5,5,0,0,1,5,5v1.15a0,0,0,0,1,0,0H244.25a0,0,0,0,1,0,0v-6.14A0,0,0,0,1,244.25,212.42Z" transform="translate(564.65 430.98) rotate(180)"/><rect class="cls-1" x="287.91" y="214.37" width="25.38" height="1.9" transform="translate(601.2 430.65) rotate(180)"/><rect class="cls-1" x="280.35" y="214.37" width="3.75" height="1.9" transform="translate(564.45 430.65) rotate(180)"/><polygon class="cls-6" points="127.98 192.78 124.56 167.59 125.79 163 128.54 166.84 131.7 192.53 127.98 192.78"/><polygon class="cls-6" points="144.56 194.44 148.13 169.26 150.57 165.19 152.16 169.63 148.2 195.21 144.56 194.44"/><polygon class="cls-6" points="133 196.38 133.31 170.59 135.52 166.53 137.41 170.66 137.05 196.42 133 196.38"/><polygon class="cls-5" points="148.32 221.27 128.82 221.27 125.28 188.94 150.9 188.94 148.32 221.27"/><polygon class="cls-6" points="400.21 465.87 404.89 465.87 352.25 236.84 342.33 236.84 400.21 465.87"/><polygon class="cls-6" points="257.57 463.48 262.24 463.48 296.11 236.84 286.2 236.84 257.57 463.48"/><polygon class="cls-6" points="186.63 464.86 191.31 464.86 154.09 236.84 144.18 236.84 186.63 464.86"/><polygon class="cls-6" points="55.48 462.44 60.15 462.44 104.95 236.84 95.03 236.84 55.48 462.44"/><rect class="cls-11" x="133.32" y="226.6" width="246.94" height="10.24" transform="translate(513.58 463.45) rotate(180)"/><rect class="cls-12" x="54.13" y="226.6" width="227.72" height="10.24" transform="translate(335.99 463.45) rotate(180)"/><rect class="cls-12" x="138.81" y="218.04" width="264.11" height="13.7" transform="translate(541.73 449.78) rotate(180)"/><rect class="cls-13" x="19.51" y="218.04" width="244.89" height="13.7" transform="translate(283.9 449.78) rotate(180)"/><ellipse class="cls-14" cx="273.39" cy="461.26" rx="242.13" ry="16.29"/></g></svg>