<svg xmlns="http://www.w3.org/2000/svg" viewBox="0 0 599.04 500"><defs><style>.cls-1{fill:#6387c1;}.cls-2{fill:#fff;}.cls-3{fill:#4a73af;}</style></defs><title>369729-PB8VLL-805</title><g id="OBJECTS"><rect class="cls-1" x="31.68" y="64.34" width="531.36" height="393.96" rx="7.67"/><path class="cls-2" d="M555.37,64.34h-516A7.69,7.69,0,0,0,31.68,72V90.63H563V72A7.69,7.69,0,0,0,555.37,64.34Z"/><path class="cls-1" d="M62.16,77.34a5.77,5.77,0,1,1-5.74-5.79A5.78,5.78,0,0,1,62.16,77.34Z"/><path class="cls-1" d="M80.09,77.41a5.77,5.77,0,1,1-5.74-5.79A5.75,5.75,0,0,1,80.09,77.41Z"/><path class="cls-1" d="M98,77.49a5.77,5.77,0,1,1-5.74-5.79A5.77,5.77,0,0,1,98,77.49Z"/><rect class="cls-3" x="73.04" y="117.37" width="448.65" height="108.04"/><rect class="cls-3" x="73.04" y="244.18" width="100.32" height="63.65"/><rect class="cls-3" x="73.04" y="347.21" width="446.76" height="8.88"/><rect class="cls-3" x="73.04" y="400.22" width="446.76" height="8.88"/><rect class="cls-3" x="73.04" y="421.78" width="446.76" height="8.88"/><rect class="cls-3" x="73.04" y="324.75" width="446.76" height="8.88"/><rect class="cls-3" x="188.84" y="244.18" width="100.32" height="63.65"/><rect class="cls-3" x="304.64" y="244.18" width="100.32" height="63.65"/><rect class="cls-3" x="420.44" y="244.18" width="100.32" height="63.65"/></g></svg>