<svg xmlns="http://www.w3.org/2000/svg" xmlns:xlink="http://www.w3.org/1999/xlink" viewBox="0 0 48 60" version="1.1" x="0px" y="0px"><title>close-icon@1x</title><desc>Created with Sketch.</desc><g stroke="none" stroke-width="1" fill="none" fill-rule="evenodd"><g transform="translate(-1051.000000, -2920.000000)" fill="#000000"><g transform="translate(275.000000, 1935.000000)"><g transform="translate(75.000000, 512.000000)"><g transform="translate(701.000000, 473.000000)"><path d="M27.895,24 L47.193,43.297196 C48.269,44.375151 48.269,46.1170785 47.193,47.1930336 C46.117,48.2689888 44.373,48.2689888 43.299,47.1930336 L23.999,27.8938378 L4.701,47.1930336 C3.625,48.2689888 1.883,48.2689888 0.807,47.1930336 C-0.269,46.1170785 -0.269,44.375151 0.807,43.297196 L20.105,24 L0.807,4.70280405 C-0.269,3.62684888 -0.269,1.88292154 0.807,0.806966376 C1.883,-0.268988792 3.625,-0.268988792 4.701,0.806966376 L23.999,20.1061622 L24.007,20.1001625 L27.901,23.9940002 L27.895,24 Z M47.1928,4.70180409 L31.7968,20.0991625 L27.9008,16.2033249 L43.2988,0.807966335 C44.3728,-0.267988834 46.1168,-0.267988834 47.1928,0.807966335 C48.2688,1.8839215 48.2688,3.62784884 47.1928,4.70180409 Z"/></g></g></g></g></g><text x="0" y="63" fill="#000000" font-size="5px" font-weight="bold" font-family="'Helvetica Neue', Helvetica, Arial-Unicode, Arial, Sans-serif">Created by andrewcaliber</text><text x="0" y="68" fill="#000000" font-size="5px" font-weight="bold" font-family="'Helvetica Neue', Helvetica, Arial-Unicode, Arial, Sans-serif">from the Noun Project</text></svg>